<svg aria-hidden="true" style="position:absolute;width:0;height:0" xmlns="http://www.w3.org/2000/svg" overflow="hidden"><defs><symbol id="Client1" viewBox="0 0 59 32"><path fill="var(--color1, #afb1b8)" d="M24.35 8.002l2.438 2.308-4.525-.003v11.197H34.09v-4.281l2.435 2.305V8.002H24.35zm9.632 8.949l-6.912-6.543h6.912v6.543zm-2.146 2.914h-7.702v-7.53h.544v7.02h7.158v.51zm-5.883 3.129l-.285.586-.285-.586h-.239l.415.781v.455h.216v-.455l.415-.781h-.238zm.358 1.237l.1-.288h.479l.101.288h.224l-.468-1.237h-.193l-.467 1.237h.223zm.339-.974l.179.513h-.358l.179-.513zm1.133.483a.28.28 0 00-.047.155v.002c0 .104.037.189.11.254s.172.097.294.097a.513.513 0 00.316-.099l.07.082h.239l-.182-.215a.618.618 0 00.107-.374h-.18a.494.494 0 01-.051.226l-.239-.282.084-.061a.48.48 0 00.127-.127l.001-.002a.276.276 0 00.039-.141v-.002-.005a.254.254 0 00-.086-.191.309.309 0 00-.209-.08h-.013.001c-.099 0-.179.029-.238.085s-.088.133-.088.23c0 .04.009.081.028.123a.777.777 0 00.101.154.745.745 0 00-.184.17zm.558.273a.316.316 0 01-.195.07h-.01a.185.185 0 01-.193-.186v-.007c0-.066.034-.125.102-.177l.026-.019.27.319zm-.221-.548c-.058-.072-.088-.131-.088-.179 0-.041.012-.075.036-.103a.122.122 0 01.091-.041H28.168c.034 0 .065.013.088.035a.11.11 0 01.037.082v.004c0 .046-.02.087-.052.115l-.026.022-.094.064zm2.012.672a.445.445 0 00.146-.309h-.214c-.011.088-.038.151-.081.189s-.106.057-.19.057a.242.242 0 01-.211-.105.55.55 0 01-.071-.306v-.109c.001-.132.027-.232.077-.3s.122-.103.216-.103c.08 0 .141.02.183.059s.068.103.078.192h.214c-.014-.135-.062-.24-.145-.314s-.193-.111-.329-.111a.47.47 0 00-.444.274l-.001.003a.723.723 0 00-.062.294v.015-.001.116c.002.114.023.214.064.3s.099.152.173.199a.48.48 0 00.261.07.503.503 0 00.339-.11zm1.263-.173a.757.757 0 00.063-.319v-.069-.013a.753.753 0 00-.066-.308l.002.005a.478.478 0 00-.179-.208l-.002-.001c-.078-.049-.167-.073-.268-.073s-.19.024-.268.074a.48.48 0 00-.181.212.751.751 0 00-.064.304v.016-.001.07c.001.118.022.223.064.313s.104.161.182.21a.497.497 0 00.268.073c.102 0 .191-.024.269-.073s.138-.12.18-.211zm-.23-.699a.54.54 0 01.078.316v.064c0 .139-.026.245-.077.318s-.124.109-.219.109h-.009a.256.256 0 01-.211-.111l-.001-.001a.535.535 0 01-.079-.315v-.071a.528.528 0 01.08-.308.255.255 0 01.209-.11h.01c.095 0 .168.037.22.11z"/></symbol><symbol id="Client2" viewBox="0 0 59 32"><path fill="var(--color1, #afb1b8)" d="M28.564 7.631h-.048a9.542 9.542 0 00-.214-.008h-.163c-.138 0-.279.003-.419.01l-.016-.001-.017.001h.001a9.796 9.796 0 00-3.717.959l.059-.026-.151.072v7.702l.352-.12c.309-.106.638-.202.979-.29.841-.225 1.81-.361 2.808-.374h.008v1.012a8.944 8.944 0 00-.37.01h-.029a11.25 11.25 0 00-2.245.35l.078-.017c-.98.249-1.839.594-2.638 1.035l.057-.029V8.039c.78-.463 1.681-.841 2.636-1.086l.072-.016a10.075 10.075 0 012.55-.329h.151c.178.005.351.013.514.025.429.03.854.098 1.271.202v.996a7.441 7.441 0 00-1.206-.184l-.026-.002-.025-.002a3.005 3.005 0 00-.249-.015h-.003zm1.752 1.018c.221.017.449.025.681.025a10.987 10.987 0 002.759-.361l-.076.017a11.03 11.03 0 002.637-1.035l-.057.029v9.702c-.78.463-1.682.841-2.636 1.086l-.072.016c-.765.205-1.644.325-2.55.328h-.065a7.796 7.796 0 01-1.927-.24l.054.012V8.463a8.131 8.131 0 001.252.188zm4.938.075l-.352.119c-.324.109-.65.206-.978.293-.877.235-1.883.371-2.922.375H31c-.23 0-.441-.006-.645-.019l-.281-.018v7.923l.241.021c.223.02.454.03.686.03a9.368 9.368 0 002.368-.313l-.065.015a9.607 9.607 0 001.857-.672l-.057.025.151-.072V8.727zM23.562 21.294a.516.516 0 00-.373-.159h-.019.001-.008a.582.582 0 00-.222.044l.004-.001a.512.512 0 00-.288.289l-.001.003a.565.565 0 00-.04.218v1.32a.633.633 0 00.052.271.523.523 0 00.132.177.462.462 0 00.181.094.731.731 0 00.197.027.558.558 0 00.547-.556v-.148h-.345v.126a.301.301 0 01-.021.112l.001-.002a.215.215 0 01-.05.074.235.235 0 01-.144.05l-.02.001a.173.173 0 01-.141-.072.31.31 0 01-.046-.163v-.014.001-1.231a.432.432 0 01.042-.197.176.176 0 01.169-.08h-.001.007c.06 0 .114.029.147.074a.278.278 0 01.057.17v.122h.342v-.135-.006a.602.602 0 00-.044-.229l.001.004a.538.538 0 00-.116-.186zm2.05-.015a.605.605 0 00-.598-.108.547.547 0 00-.315.289l-.001.003a.606.606 0 00-.05.256v1.265a.623.623 0 00.05.259.516.516 0 00.134.177.534.534 0 00.182.111.594.594 0 00.599-.112l-.001.001a.542.542 0 00.18-.436v-1.266-.012a.597.597 0 00-.052-.247l.002.004a.572.572 0 00-.13-.185zm-.161 1.706a.232.232 0 01-.068.183.252.252 0 01-.325 0 .224.224 0 01-.069-.163l.001-.021v.001-1.266l-.001-.02c0-.064.027-.122.069-.163a.252.252 0 01.325 0 .224.224 0 01.069.163l-.001.021v-.001 1.266zm2.853.566v-2.397h-.331l-.436 1.269h-.006l-.439-1.268h-.328v2.396h.342v-1.457h.006l.335 1.03h.171l.338-1.03h.006v1.457h.342zm1.944-2.229a.481.481 0 00-.193-.131.733.733 0 00-.235-.037h-.522v2.397h.341v-.936h.176a.629.629 0 00.308-.065.497.497 0 00.186-.181l.001-.002a.582.582 0 00.078-.209c.012-.075.019-.162.019-.251v-.023.001a1.403 1.403 0 00-.033-.342.513.513 0 00-.126-.22zm-.176.731a.318.318 0 01-.032.127l.001-.002a.189.189 0 01-.087.083h-.001a.349.349 0 01-.143.031h-.019.001-.156v-.815h.192a.33.33 0 01.14.031l-.002-.001a.19.19 0 01.079.087v.001a.344.344 0 01.03.134v.159c0 .056.003.113 0 .165h-.003zm1.794-.899h-.28l-.528 2.397h.342l.1-.515h.465l.101.515h.341l-.541-2.397zm-.315 1.555l.168-.869h.006l.167.869h-.341zm2.521-.112h-.006l-.516-1.444h-.328v2.397h.341v-1.441h.007l.522 1.441h.321v-2.396h-.341v1.444zm2.086-1.443l-.275.953h-.007l-.274-.953h-.362l.469 1.384v1.013h.342v-1.013l.469-1.383h-.361zM22.61 24.227h.165v.462h.112v-.462h.163v-.095h-.44v.095zm1.384-.095l-.216.557h.119l.046-.127h.222l.047.127h.122l-.221-.557h-.119zm-.018.337l.075-.206.075.206h-.151zm1.385.014h.129v.072a.21.21 0 01-.132.047h-.008a.14.14 0 01-.11-.053.23.23 0 01-.041-.133v-.013.001c0-.124.054-.186.16-.186l.012-.001c.055 0 .101.038.114.089v.001l.11-.021c-.024-.109-.102-.163-.236-.163h-.008a.278.278 0 00-.187.072.27.27 0 00-.08.215v-.001.013a.3.3 0 00.072.196.268.268 0 00.194.082l.018-.001h-.001.009a.336.336 0 00.227-.089v-.219h-.241v.094zm1.397-.351h-.113v.557h.39v-.095h-.277v-.462zm1.18 0h-.112v.557h.112v-.557zm1.155.372l-.228-.372h-.109v.557h.104v-.363l.224.363h.112v-.557h-.103v.372zm1.044-.06h.277v-.095h-.277v-.122h.298v-.095h-.411v.557h.422v-.095h-.31v-.151zm2.53-.092h-.219v-.219h-.111v.556h.111v-.244h.219v.244h.112v-.557h-.112v.22zm1.05.092h.278v-.095h-.278v-.122h.299v-.095h-.41v.557h.422v-.095h-.31v-.151zm1.424 0c.097-.015.146-.066.146-.155l.001-.016a.133.133 0 00-.055-.107.312.312 0 00-.141-.033l-.023.001h.001-.236v.556h.112v-.233h.031a.16.16 0 01.062.013h-.001a.12.12 0 01.04.041l.121.177h.134l-.068-.109a.4.4 0 00-.122-.133l-.001-.001zm-.113-.077h-.082v-.14h.088l.024-.001c.032 0 .063.005.092.015l-.002-.001a.074.074 0 01.024.055.077.077 0 01-.008.034.061.061 0 01-.021.024.307.307 0 01-.093.014l-.022-.001h.001zm1.187.077h.277v-.095h-.277v-.122h.299v-.095h-.412v.557h.422v-.095h-.31v-.151z"/></symbol><symbol id="Client3" viewBox="0 0 59 32"><path fill="var(--color1, #afb1b8)" d="M23.795 22.646c.006 0 .011.001.016.003l.014.008.076.072a.621.621 0 01-.214.138.823.823 0 01-.283.05h-.021.001a.802.802 0 01-.284-.046.592.592 0 01-.352-.327l-.001-.004a.653.653 0 01-.049-.251v-.008-.013c0-.177.077-.336.199-.446h.001a.692.692 0 01.227-.131.907.907 0 01.293-.046h.018c.091 0 .178.015.259.044l-.006-.002a.748.748 0 01.204.117l-.064.077a.07.07 0 01-.016.014.04.04 0 01-.022.006h-.003a.054.054 0 01-.028-.008l-.034-.021-.048-.026a.55.55 0 00-.147-.046h-.003a.69.69 0 00-.105-.008h-.016a.623.623 0 00-.208.036l.004-.001a.44.44 0 00-.273.253.51.51 0 00-.039.198v.015c0 .072.014.141.04.204l-.001-.004a.454.454 0 00.105.154.422.422 0 00.158.096.559.559 0 00.195.033.892.892 0 00.116-.007.457.457 0 00.251-.107l-.001.001a.057.057 0 01.036-.013zm2.191-.364v.008a.63.63 0 01-.053.253l.002-.004a.552.552 0 01-.142.198h-.001a.665.665 0 01-.22.129l-.005.001a.91.91 0 01-.583-.002l.006.002a.66.66 0 01-.223-.131l.001.001a.58.58 0 01-.143-.197l-.001-.004a.665.665 0 01.002-.518l-.002.004a.59.59 0 01.144-.202.652.652 0 01.223-.126.904.904 0 01.583.002l-.006-.002c.084.03.16.074.224.131s.111.125.143.199c.035.083.053.17.051.258zm-.199 0v-.011a.53.53 0 00-.038-.199l.001.004a.424.424 0 00-.259-.25l-.003-.001a.67.67 0 00-.424.001l.005-.001a.434.434 0 00-.263.249l-.001.003a.59.59 0 00.002.416l-.001-.004c.046.119.141.21.26.25l.003.001a.682.682 0 00.419 0 .439.439 0 00.16-.096.432.432 0 00.102-.154.54.54 0 00.036-.206zm1.694.216l.02.046.022-.046a.342.342 0 01.026-.047l-.001.002.485-.766c.01-.013.018-.022.028-.024s.021-.004.033-.004h.15v1.245h-.17v-.954l-.001-.022.001-.023v.001l-.488.776a.069.069 0 01-.028.028.08.08 0 01-.041.01h-.028-.001a.081.081 0 01-.041-.011.069.069 0 01-.028-.028l-.502-.781v.999h-.164v-1.243h.15c.012 0 .023.002.034.005h-.001a.051.051 0 01.026.024l.495.766a.252.252 0 01.024.043l.001.002zm1.823-.062v.466h-.189v-1.243h.423a.934.934 0 01.236.027.474.474 0 01.167.078c.04.032.073.073.094.12l.001.002a.368.368 0 01.032.159v.008a.345.345 0 01-.137.275l-.001.001a.496.496 0 01-.168.082.795.795 0 01-.213.029h-.016l-.229-.003zm0-.133h.23a.52.52 0 00.147-.019.317.317 0 00.107-.054l-.001.001a.239.239 0 00.087-.184v-.003-.013a.204.204 0 00-.02-.089l.001.001a.241.241 0 00-.066-.085.399.399 0 00-.225-.068l-.031.001h.001-.23v.512zm2.55.601h-.153a.067.067 0 01-.039-.012.075.075 0 01-.025-.028l-.129-.301h-.648l-.134.301a.071.071 0 01-.064.04h-.152l.569-1.245h.197l.577 1.245zm-.939-.462h.535l-.225-.507a.963.963 0 01-.043-.117l-.022.065a.586.586 0 01-.021.053l-.224.506zm1.758-.777a.076.076 0 01.028.022l.83.939v-.967h.17v1.245h-.097a.09.09 0 01-.037-.008h.001a.12.12 0 01-.031-.023l-.829-.938.001.021-.001.022v-.001.925h-.17v-1.245h.101c.011 0 .023.002.034.006zm2.426.744v.494h-.19v-.494l-.525-.75H34.558c.014 0 .026.004.037.011.01.008.019.018.026.028l.328.484c.013.021.025.04.034.058s.017.035.024.053l.024-.054a.545.545 0 01.032-.057l.324-.487a.12.12 0 01.024-.026.059.059 0 01.037-.012H35.623l-.525.753zm-7.712-2.839c.083.009.166.016.25.023 1.28-.497 2.362-1.311 3.113-2.34s1.134-2.227 1.105-3.445l-1.41-1.225c.287 1.296.152 2.637-.387 3.871s-1.464 2.313-2.67 3.117z"/><path fill="var(--color1, #afb1b8)" d="M26.883 19.513l.038.007c1.288-.801 2.271-1.919 2.82-3.21s.64-2.695.261-4.032l-2.009-1.745c.812 1.435 1.139 3.04.943 4.63s-.908 3.098-2.052 4.35zm6.813-4.267c-.341 1.338-1.17 2.545-2.363 3.441a7.363 7.363 0 01-1.081.68l-.042.02c.972-.248 1.865-.687 2.611-1.282s1.324-1.332 1.691-2.152l-.815-.707z"/><path fill="var(--color1, #afb1b8)" d="M33.376 15.049l-1.16-1.008c-.022 1.149-.398 2.272-1.089 3.252s-1.671 1.782-2.838 2.321h.006c.26 0 .52-.014.779-.04 1.091-.387 2.055-1.003 2.806-1.792s1.265-1.728 1.497-2.732zm-6.325-5.253l-1.384-1.204c-1.237.415-2.301 1.145-3.052 2.095s-1.156 2.074-1.159 3.226c.005 1.273.498 2.509 1.402 3.511s2.166 1.714 3.588 2.022c1.269-1.343 2.012-3.003 2.121-4.739s-.422-3.456-1.515-4.912zm9.522 5.068c-.005-1.51-.698-2.958-1.927-4.026s-2.896-1.67-4.634-1.674h-.015c-.835 0-1.638.139-2.386.395l.052-.015 8.472 7.361a4.92 4.92 0 00.438-2.04z"/></symbol><symbol id="client4" viewBox="0 0 59 32"><path fill="var(--color1, #afb1b8)" d="M19.53 12.907h-.001c-.834 0-1.51.601-1.51 1.342v.001c0 .741.676 1.342 1.51 1.342h.001c.834 0 1.51-.601 1.51-1.342v-.001c0-.742-.676-1.343-1.51-1.343zm11.149-.429c-.002-1.03-.464-2.017-1.283-2.745s-1.93-1.138-3.088-1.141c-1.159.002-2.27.412-3.09 1.14s-1.281 1.715-1.284 2.745v5.678s8.743-.865 8.744-5.677v-.001zM14.958 20.02c.002.717.323 1.403.893 1.91s1.342.792 2.148.794c.806-.002 1.578-.288 2.148-.794s.891-1.193.893-1.909V16.07s-6.083.603-6.083 3.95zm3.041.707a.864.864 0 01-.442-.119.738.738 0 01-.291-.313l-.002-.004a.626.626 0 01-.044-.413l-.001.004c.031-.137.106-.264.218-.362a.84.84 0 01.564-.208c.109 0 .214.02.311.056l-.006-.002c.145.054.27.144.357.261s.134.253.134.393c0 .093-.02.186-.06.272a.72.72 0 01-.172.23l-.001.001a.813.813 0 01-.259.154.875.875 0 01-.305.054h-.001v-.003zm6.148-.389h-.587v.606h-.306V19.46h.966v.248h-.661v.383h.587v.247zm1.469-.102c0 .146-.026.274-.077.384s-.126.195-.223.255a.61.61 0 01-.319.09h-.012.001a.617.617 0 01-.329-.089.602.602 0 01-.223-.249l-.002-.004a.855.855 0 01-.08-.366v-.014.001-.073c0-.146.026-.275.078-.385a.588.588 0 01.553-.346c.124 0 .233.03.329.09.096.059.171.144.223.256s.079.239.079.384v.066zm-.309-.068c0-.155-.028-.274-.084-.355a.273.273 0 00-.227-.121h-.013.001-.012a.27.27 0 00-.225.12l-.001.001c-.056.08-.084.196-.085.351v.072c0 .151.028.269.084.352s.136.125.241.125h.012a.27.27 0 00.224-.119l.001-.001c.055-.081.083-.198.084-.353v-.072zm1.301.387v-.009a.154.154 0 00-.061-.123.791.791 0 00-.22-.098 1.515 1.515 0 01-.26-.106l.009.004c-.169-.091-.253-.214-.253-.368 0-.08.023-.152.067-.214.046-.063.111-.112.195-.148s.18-.053.285-.053c.106 0 .2.019.284.058a.44.44 0 01.262.4h-.306c0-.068-.021-.121-.064-.158a.263.263 0 00-.18-.057.277.277 0 00-.174.048.147.147 0 00-.062.121v.004c0 .048.024.089.072.121s.121.063.215.091c.174.052.301.117.38.195s.119.174.119.289c0 .128-.049.23-.146.303s-.227.109-.392.109a.756.756 0 01-.312-.063.5.5 0 01-.214-.17l-.001-.002a.438.438 0 01-.073-.243v-.01h.306c0 .163.098.246.294.246a.289.289 0 00.17-.044.146.146 0 00.061-.118v-.006zm1.632-.847h-.454v1.236h-.306v-1.236h-.448v-.248h1.208v.248zm1.068.593h-.587v.398h.689v.246h-.994v-1.484h.993v.248h-.687v.354h.587v.239zm.83.1h-.244v.543h-.306V19.46h.551c.175 0 .311.039.406.117s.143.189.143.331a.46.46 0 01-.066.254.45.45 0 01-.196.16l-.003.001.321.606v.014h-.328l-.278-.543zm-.243-.248h.247c.077 0 .136-.019.178-.058a.21.21 0 00.063-.151v-.012.001c0-.07-.02-.125-.06-.165s-.1-.06-.183-.06h-.246v.445zm1.852.268v.523h-.306V19.46h.579c.111 0 .209.021.294.061s.15.099.196.174c.045.075.068.16.068.256 0 .145-.05.26-.15.344s-.237.126-.413.126h-.268zm0-.247h.273c.081 0 .143-.019.184-.057.043-.038.064-.093.064-.163v-.011a.245.245 0 00-.064-.166.238.238 0 00-.177-.069h-.28v.466zm1.934.127h-.587v.398h.689v.246h-.995v-1.484h.993v.248h-.687v.354h.587v.239zm1.419-.593h-.455v1.236h-.306v-1.236h-.448v-.248H35.1v.248zm1.068.593h-.587v.398h.689v.246h-.995v-1.484h.992v.248h-.687v.354h.587v.239zm.831.1h-.243v.543h-.306V19.46h.551c.175 0 .31.039.406.117s.143.189.143.331a.46.46 0 01-.066.254.45.45 0 01-.196.16l-.003.001.321.606v.014h-.328L37 20.4zm-.244-.248h.247c.077 0 .136-.019.178-.058a.213.213 0 00.063-.162c0-.07-.02-.125-.06-.165s-.1-.06-.182-.06h-.246v.445zm1.797.402v-.009a.158.158 0 00-.061-.124.791.791 0 00-.22-.098 1.515 1.515 0 01-.26-.106l.009.004c-.169-.091-.253-.214-.253-.368 0-.08.022-.152.067-.214.046-.063.111-.112.195-.148s.18-.053.285-.053c.106 0 .2.019.283.058s.147.092.192.162c.046.07.07.15.07.238h-.306a.2.2 0 00-.064-.158.263.263 0 00-.18-.057.277.277 0 00-.174.048.147.147 0 00-.062.12v.004c0 .048.024.089.072.121s.121.063.215.091c.174.052.301.117.38.195s.119.174.119.289c0 .128-.049.23-.146.303s-.228.109-.392.109a.756.756 0 01-.312-.063.508.508 0 01-.214-.17l-.001-.002a.44.44 0 01-.074-.244v-.01h.307c0 .163.098.246.294.246a.289.289 0 00.17-.044.147.147 0 00.061-.119v-.006z"/></symbol><symbol id="Client5" viewBox="0 0 59 32"><path fill="var(--color1, #afb1b8)" d="M20.439 21.128c.085.096.13.216.128.34l.001.026a.485.485 0 01-.048.212l.001-.003a.555.555 0 01-.151.193l-.001.001a.907.907 0 01-.577.157h.003-1.01v-2.153h.989l.058-.002c.182 0 .351.054.493.147l-.003-.002c.064.049.115.111.148.181s.048.146.044.223a.471.471 0 01-.115.329.542.542 0 01-.301.168.586.586 0 01.341.184zm-1.185-.325h.423a.43.43 0 00.269-.072.26.26 0 00.071-.094l.001-.002a.24.24 0 00.02-.094l-.001-.021v.001l.001-.018a.245.245 0 00-.02-.098l.001.002a.284.284 0 00-.07-.096.433.433 0 00-.278-.073h.002-.416v.565zm.733.826a.27.27 0 00.077-.097l.001-.002a.247.247 0 00.023-.103l-.001-.018v-.015a.262.262 0 00-.024-.108l.001.002a.275.275 0 00-.079-.099h-.001a.464.464 0 00-.259-.079l-.03.001h.001-.444v.592h.449a.478.478 0 00.284-.075zm2.474.425l-.55-.842h-.207v.842h-.473V19.9h.896l.064-.002c.211 0 .405.07.562.187l-.002-.002a.663.663 0 01.215.479.644.644 0 01-.149.413l.001-.001a.746.746 0 01-.423.218h-.004l.586.861h-.515zm-.757-1.136h.387c.269 0 .404-.109.404-.326v-.017a.291.291 0 00-.023-.115l.001.002a.303.303 0 00-.077-.111.446.446 0 00-.267-.089l-.039.002h.002-.392l.005.655zm3.345.702h-.943l-.167.434h-.496l.866-2.13h.537l.863 2.13h-.496l-.163-.433zm-.126-.326l-.345-.909-.345.909h.689zm3.365.76h-.47l-1.054-1.464v1.464h-.469V19.9h.469l1.054 1.473V19.9h.47v2.154zm2.682-.516a.982.982 0 01-.425.38 1.47 1.47 0 01-.623.136l-.04-.001h.002-.836v-2.154h.876c.225 0 .439.049.631.137l-.01-.004c.18.084.328.214.425.376a1.164 1.164 0 010 1.13zm-.537-.051a.75.75 0 00.208-.514.75.75 0 00-.208-.514.863.863 0 00-.591-.183h.003-.326v1.394h.326a.862.862 0 00.59-.184l-.002.001zm-5.09-13.566s6.066 2.097 5.937 5.131v5.132s-6.062-2.098-5.935-5.132l-.002-5.131zm11.341 9.061a8.793 8.793 0 013.854-1.3v-1.607c-1.594.563-2.946 1.583-3.854 2.907z"/><path fill="var(--color1, #afb1b8)" d="M35.996 17.467c.937-1.729 2.563-3.063 4.542-3.728V9.11s-8.639 2.987-8.456 7.308v7.307s.385-.134.991-.384c0-.233 0-.469.028-.706.178-2.006 1.22-3.865 2.896-5.168z"/><path fill="var(--color1, #afb1b8)" d="M35.175 20.181a6.919 6.919 0 01.302-1.496c-1.044 1.125-1.675 2.522-1.806 3.993a5.81 5.81 0 00-.023.421 23.846 23.846 0 001.801-.87l-.139.068a6.936 6.936 0 01-.134-2.116zm.343.026a6.687 6.687 0 00.114 1.959l-.008-.043c2.36-1.293 5.012-3.291 4.91-5.706v-.21c-1.686.173-3.264.848-4.491 1.921a6.509 6.509 0 00-.524 2.053l-.002.026z"/></symbol><symbol id="Client6" viewBox="0 0 59 32"><path fill="var(--color1, #afb1b8)" d="M29.715 15.101a1.017 1.017 0 01-.211-.695v.003-1.003c0-.307.07-.541.209-.701s.379-.239.718-.239c.319 0 .546.068.68.204a.833.833 0 01.201.6v.236h-.57v-.239a1.148 1.148 0 00-.017-.234.225.225 0 00-.081-.138.324.324 0 00-.183-.055l-.025.001h.001l-.024-.001a.347.347 0 00-.194.059l.001-.001a.268.268 0 00-.094.151v.002a1.169 1.169 0 00-.023.229v.02-.001 1.217a.624.624 0 00.073.342c.03.037.068.065.112.082l.002.001a.3.3 0 00.149.019h-.001l.024.001a.305.305 0 00.179-.057l-.001.001a.246.246 0 00.085-.146v-.001a1.33 1.33 0 00.018-.244v-.247h.571v.225l.002.06a.912.912 0 01-.201.573l.001-.002c-.131.149-.355.223-.683.223s-.577-.08-.717-.245zm2.377.01c-.144-.157-.216-.384-.216-.685v-1.055c0-.298.072-.524.216-.677s.385-.229.723-.229c.336 0 .575.077.72.229.144.153.217.378.217.677v1.055c0 .298-.073.527-.22.684s-.385.236-.717.236-.578-.08-.724-.234zm.989-.253a.59.59 0 00.069-.312v-1.292l.001-.035a.564.564 0 00-.07-.274l.002.003a.273.273 0 00-.115-.083l-.002-.001a.31.31 0 00-.152-.017h.002c-.012-.002-.025-.002-.039-.002a.34.34 0 00-.115.021l.002-.001a.284.284 0 00-.117.083v.001a.571.571 0 00-.069.306v1.298a.572.572 0 00.069.312.385.385 0 00.267.105c.053 0 .103-.01.149-.029l-.003.001a.364.364 0 00.12-.077v-.006zm1.358-2.361h.614l.462 1.946.473-1.946h.598l.061 2.809h-.442l-.047-1.953-.456 1.953h-.354l-.473-1.959-.044 1.959h-.447l.056-2.809zm2.896 0h.957c.551 0 .827.266.827.798 0 .509-.29.764-.871.763h-.326v1.248h-.591l.003-2.81zm.818 1.201a.444.444 0 00.325-.089.451.451 0 00.085-.317l.001-.031a.869.869 0 00-.031-.23l.001.006a.19.19 0 00-.044-.077.25.25 0 00-.073-.056l-.001-.001a.605.605 0 00-.233-.046l-.032.001h.002-.229v.84h.229zm1.818-1.201h.635l.651 2.809h-.551l-.129-.648h-.566l-.133.648h-.559l.651-2.809zm.543 1.837l-.221-1.179-.221 1.179h.442zm1.269-1.837h.414l.792 1.603v-1.603h.49v2.809h-.393l-.797-1.673v1.673h-.507l.001-2.809zm2.844 1.738l-.658-1.734h.554l.402 1.114.377-1.114h.543l-.65 1.734v1.071h-.567v-1.071zm-13.999 2.3v.147h-.482v1.142h-.202v-1.142h-.485v-.147h1.169zm1.511 1.289h-.16a.078.078 0 01-.04-.012.073.073 0 01-.026-.029l-.14-.306h-.669l-.139.306a.08.08 0 01-.022.035.068.068 0 01-.04.012h-.16l.591-1.288h.206l.598 1.284zm-.978-.479h.558l-.237-.525a.845.845 0 01-.042-.115l-.002-.007-.022.069-.022.054-.234.524zm1.997.352a.736.736 0 00.29-.038c.026-.009.052-.021.079-.032v-.29h-.238a.046.046 0 01-.03-.011.028.028 0 01-.009-.01.021.021 0 01-.003-.012v-.1h.458v.494a.852.852 0 01-.243.103l-.006.001a1.069 1.069 0 01-.148.027 1.656 1.656 0 01-.173.008h-.008a.912.912 0 01-.297-.05l.006.002a.74.74 0 01-.238-.135l.001.001a.63.63 0 01-.151-.2l-.002-.004a.638.638 0 01-.054-.259v-.009-.008c0-.094.02-.184.055-.266l-.002.004a.59.59 0 01.152-.204.726.726 0 01.237-.134 1.12 1.12 0 01.481-.037.85.85 0 01.259.084.79.79 0 01.103.067l-.057.08a.052.052 0 01-.019.017.06.06 0 01-.027.007.079.079 0 01-.037-.01.566.566 0 01-.061-.032l.003.002a.582.582 0 00-.075-.034l-.004-.001a.68.68 0 00-.104-.028l-.005-.001a.9.9 0 00-.142-.011h-.015a.704.704 0 00-.226.037l.005-.001a.497.497 0 00-.174.102.437.437 0 00-.108.157l-.001.003a.596.596 0 00.001.434l-.001-.004a.503.503 0 00.29.264.658.658 0 00.234.025zm1.883-.02h.645v.147h-.843v-1.288h.202l-.005 1.142zm1.317.147h-.202v-1.288h.202v1.288zm.751-1.283a.12.12 0 01.031.023l.864.971-.001-.023.001-.024v.001-.96h.176v1.294h-.109a.1.1 0 01-.038-.008h.001a.128.128 0 01-.032-.024l-.863-.971v1.002h-.169v-1.288h.105c.011 0 .023.002.033.006zm2.559-.006v.142h-.716v.425h.58v.137h-.58v.44h.716v.142h-.924v-1.285h.924zM18.492 8.577l8.973 2.2v7.708l-8.973-2.198V8.578zm-.575-.656v8.74l10.122 2.482v-8.739L17.917 7.921z"/><path fill="var(--color1, #afb1b8)" d="M23.342 23.2l-10.124-2.484v-8.739l10.124 2.483v8.74z"/><path fill="var(--color1, #afb1b8)" d="M18.085 8.479l8.856 2.172-3.766 3.252-8.857-2.173 3.767-3.251zm-.168-.558l-4.698 4.056 10.124 2.484 4.697-4.057-10.122-2.483zm5.995 14.787l4.128-3.564-4.128-1.013v4.578z"/></symbol><symbol id="envelope" viewBox="0 0 43 32"><path d="M38.682-.006H4.002A4.007 4.007 0 000 3.996v24.009a4.007 4.007 0 004.002 4.002h34.68a4.007 4.007 0 004.002-4.002V3.996a4.007 4.007 0 00-4.002-4.002zm0 2.667c.181 0 .355.037.512.104L21.342 18.238 3.49 2.765c.151-.065.327-.104.512-.104h34.68zm0 26.678H4.002a1.334 1.334 0 01-1.334-1.334V5.583L20.467 21.01a1.333 1.333 0 001.752-.001l-.002.001L40.016 5.583v22.422c0 .737-.597 1.334-1.334 1.334z"/></symbol><symbol id="facebook" viewBox="0 0 32 32"><path fill="var(--color3, #fff)" d="M32.009 16.005v.02c0 4.413-1.792 8.408-4.688 11.296a15.905 15.905 0 01-11.296 4.688h-.021.001-.02a15.904 15.904 0 01-11.296-4.688A15.905 15.905 0 01.001 16.025v-.021-.019c0-4.413 1.792-8.408 4.688-11.296A15.905 15.905 0 0115.985.001h.021-.001.02c4.413 0 8.408 1.792 11.296 4.688a15.905 15.905 0 014.688 11.296v.021-.001z"/><path fill="var(--color1, #afb1b8)" d="M18.427 11.145h1.329V8.832a16.61 16.61 0 00-1.868-.102h-.071.004c-1.915 0-3.227 1.205-3.227 3.419v2.037h-2.113v2.586h2.113v6.507h2.591v-6.507h2.028l.322-2.586h-2.35v-1.782c0-.747.201-1.259 1.243-1.259z"/></symbol><symbol id="instagram" viewBox="0 0 32 32"><path fill="var(--color3, #fff)" d="M32.009 16.005v.02c0 4.413-1.792 8.408-4.688 11.296a15.905 15.905 0 01-11.296 4.688h-.021.001-.02a15.904 15.904 0 01-11.296-4.688A15.905 15.905 0 01.001 16.025v-.021-.019c0-4.413 1.792-8.408 4.688-11.296A15.905 15.905 0 0115.985.001h.021-.001.02c4.413 0 8.408 1.792 11.296 4.688a15.905 15.905 0 014.688 11.296v.021-.001z"/><path fill="var(--color1, #afb1b8)" d="M23.265 13.007c-.033-.773-.159-1.304-.338-1.765a3.57 3.57 0 00-.841-1.29l-.001-.001a3.583 3.583 0 00-1.263-.83l-.024-.008c-.463-.179-.992-.304-1.765-.338-.778-.037-1.026-.046-3.002-.046s-2.222.009-2.999.043c-.773.033-1.304.159-1.765.338a3.58 3.58 0 00-1.29.84l-.001.001c-.36.354-.645.784-.83 1.263l-.008.024c-.18.463-.304.992-.338 1.765-.037.778-.046 1.026-.046 3.002s.009 2.222.043 2.999c.034.773.159 1.304.338 1.765.194.505.48.935.84 1.29h.001c.364.37.805.656 1.288.838.463.18.992.305 1.765.338.776.034 1.024.043 2.999.043s2.222-.009 2.999-.043c.773-.033 1.304-.159 1.765-.338a3.743 3.743 0 002.121-2.104l.009-.025c.179-.463.304-.992.338-1.765.034-.776.042-1.024.042-2.999s-.003-2.222-.036-2.999zm-1.31 5.941c-.032.711-.151 1.094-.25 1.349a2.429 2.429 0 01-1.366 1.377l-.016.006c-.255.099-.642.218-1.349.25-.767.034-.997.043-2.939.043s-2.174-.009-2.939-.043c-.711-.031-1.094-.151-1.35-.25a2.24 2.24 0 01-.835-.542l-.001-.001a2.263 2.263 0 01-.538-.82l-.005-.016c-.099-.256-.218-.642-.25-1.35-.034-.767-.043-.998-.043-2.939s.009-2.175.043-2.939c.031-.711.151-1.094.25-1.35.122-.328.308-.608.545-.835l.001-.001c.229-.235.509-.42.821-.538l.016-.005c.255-.099.642-.218 1.349-.25.768-.033.998-.042 2.939-.042 1.944 0 2.174.008 2.939.042.711.031 1.094.151 1.35.25.315.116.602.301.835.543.242.236.426.52.543.837.099.255.218.642.25 1.349.034.768.043.997.043 2.939s-.009 2.168-.043 2.936z"/><path fill="var(--color1, #afb1b8)" d="M16.031 12.268h-.001a3.739 3.739 0 103.739 3.739v-.001a3.74 3.74 0 00-3.738-3.738zm0 6.162a2.425 2.425 0 01.001-4.85 2.425 2.425 0 010 4.85zm4.759-6.309a.873.873 0 01-1.746 0 .873.873 0 011.746 0z"/></symbol><symbol id="linkedin" viewBox="0 0 32 32"><path fill="var(--color3, #fff)" d="M32.009 16.005v.02c0 4.413-1.792 8.408-4.688 11.296a15.905 15.905 0 01-11.296 4.688h-.021.001-.02a15.904 15.904 0 01-11.296-4.688A15.905 15.905 0 01.001 16.025v-.021-.019c0-4.413 1.792-8.408 4.688-11.296A15.905 15.905 0 0115.985.001h.021-.001.02c4.413 0 8.408 1.792 11.296 4.688a15.905 15.905 0 014.688 11.296v.021-.001z"/><path fill="var(--color1, #afb1b8)" d="M23.276 23.279h.004v-5.337c0-2.61-.562-4.621-3.614-4.621-1.467 0-2.452.805-2.853 1.568h-.042v-1.324h-2.894v9.713h3.013v-4.809c0-1.267.24-2.492 1.808-2.492 1.545 0 1.568 1.445 1.568 2.572v4.729h3.01zM8.97 13.566h3.017v9.713H8.97v-9.713zm1.507-4.836c-.965 0-1.747.782-1.747 1.747 0 .964.783 1.763 1.747 1.763s1.747-.8 1.747-1.763c0-.965-.782-1.747-1.747-1.747z"/></symbol><symbol id="smartphone" viewBox="0 0 20 32"><path d="M17.009 0H3.004A3.005 3.005 0 00.003 3.001v26.01a3.005 3.005 0 003.001 3.001h14.005a3.005 3.005 0 003.001-3.001V3.001A3.005 3.005 0 0017.009 0zM3.004 2.001h14.005a1 1 0 011 1v21.008H2.003V3.001a1 1 0 011-1zm14.005 28.011H3.004a1 1 0 01-1-1v-3.001H18.01v3.001a1 1 0 01-1 1z"/><path fill="var(--color2, #757575)" d="M4.712 27.489a.89.89 0 01.001 1.32l-.001.001a1.048 1.048 0 01-1.417 0l.001.001a.89.89 0 01-.001-1.32l.001-.001a1.048 1.048 0 011.417 0l-.001-.001z"/></symbol><symbol id="twitter" viewBox="0 0 32 32"><path fill="var(--color3, #fff)" d="M32.009 16.005v.02c0 4.413-1.792 8.408-4.688 11.296a15.905 15.905 0 01-11.296 4.688h-.021.001-.02a15.904 15.904 0 01-11.296-4.688A15.905 15.905 0 01.001 16.025v-.021-.019c0-4.413 1.792-8.408 4.688-11.296A15.905 15.905 0 0115.985.001h.021-.001.02c4.413 0 8.408 1.792 11.296 4.688a15.905 15.905 0 014.688 11.296v.021-.001z"/><path fill="var(--color1, #afb1b8)" d="M23.279 11.493c-.5.224-1.08.39-1.688.467l-.031.003a2.98 2.98 0 001.306-1.627l.006-.021a5.827 5.827 0 01-1.853.715l-.038.006a2.982 2.982 0 00-5.16 2.037v.003c0 .236.02.464.07.68a8.445 8.445 0 01-6.149-3.12 2.986 2.986 0 00.917 3.987 2.934 2.934 0 01-1.362-.375l.015.008v.033a2.997 2.997 0 002.37 2.928l.02.003a2.906 2.906 0 01-.756.098h-.028.001-.047c-.183 0-.362-.019-.534-.054l.017.003a3.01 3.01 0 002.787 2.078 5.954 5.954 0 01-3.691 1.272h-.047c-.238 0-.472-.015-.702-.044l.027.003a8.322 8.322 0 004.549 1.339h.029-.002c5.489 0 8.49-4.547 8.49-8.488a6.99 6.99 0 00-.011-.386 6.01 6.01 0 001.481-1.526l.014-.021z"/></symbol></defs></svg>